<svg xmlns="http://www.w3.org/2000/svg" width="333.472" height="422.638" viewBox="0 0 333.472 422.638">
  <g id="XBX_A-ConsoleSketch-WHT-D" transform="translate(0.627)">
    <g id="Group_534" data-name="Group 534" transform="translate(0 64.378)">
      <path id="Path_1069" data-name="Path 1069" d="M204.437,312.554v295.76l117.256,36.815V344.516Z" transform="translate(-204.437 -312.554)" fill="none" stroke="#000" stroke-linecap="round" stroke-linejoin="round" stroke-width="1"/>
      <path id="Path_1070" data-name="Path 1070" d="M571.693,312.554v295.76L454.437,645.129V344.516Z" transform="translate(-337.181 -312.554)" fill="none" stroke="#000" stroke-linecap="round" stroke-linejoin="round" stroke-width="1"/>
    </g>
    <g id="Group_548" data-name="Group 548" transform="translate(0 33.007)">
      <path id="Path_1071" data-name="Path 1071" d="M438.949,277.039,322.061,309.3l-117.625-32.26,117.5-31.372Z" transform="translate(-204.437 -245.668)" fill="none" stroke="#000" stroke-linecap="round" stroke-linejoin="round" stroke-width="1"/>
      <g id="Group_547" data-name="Group 547" transform="translate(8.278 2.139)">
        <g id="Group_535" data-name="Group 535" transform="translate(0 28.14)">
          <path id="Path_1072" data-name="Path 1072" d="M228.948,310.542c1.544.423,1.514,1.108-.066,1.531a12.775,12.775,0,0,1-5.659,0c-1.544-.423-1.512-1.109.07-1.531A12.779,12.779,0,0,1,228.948,310.542Z" transform="translate(-222.085 -310.225)" fill="none" stroke="#000" stroke-linecap="round" stroke-linejoin="round" stroke-width="1"/>
          <path id="Path_1073" data-name="Path 1073" d="M249.164,316.077c1.546.424,1.52,1.11-.06,1.534a12.76,12.76,0,0,1-5.663,0c-1.546-.424-1.517-1.111.063-1.534A12.77,12.77,0,0,1,249.164,316.077Z" transform="translate(-232.819 -313.164)" fill="none" stroke="#000" stroke-linecap="round" stroke-linejoin="round" stroke-width="1"/>
          <path id="Path_1074" data-name="Path 1074" d="M269.418,321.622c1.549.424,1.526,1.113-.053,1.537a12.756,12.756,0,0,1-5.667,0c-1.549-.424-1.523-1.113.057-1.537A12.76,12.76,0,0,1,269.418,321.622Z" transform="translate(-243.572 -316.108)" fill="none" stroke="#000" stroke-linecap="round" stroke-linejoin="round" stroke-width="1"/>
          <path id="Path_1075" data-name="Path 1075" d="M289.71,327.178c1.552.425,1.531,1.114-.047,1.541a12.755,12.755,0,0,1-5.671,0c-1.552-.425-1.529-1.115.051-1.541A12.752,12.752,0,0,1,289.71,327.178Z" transform="translate(-254.346 -319.057)" fill="none" stroke="#000" stroke-linecap="round" stroke-linejoin="round" stroke-width="1"/>
          <path id="Path_1076" data-name="Path 1076" d="M310.039,332.743c1.555.426,1.537,1.117-.041,1.544a12.742,12.742,0,0,1-5.675,0c-1.555-.426-1.535-1.118.044-1.544A12.749,12.749,0,0,1,310.039,332.743Z" transform="translate(-265.139 -322.012)" fill="none" stroke="#000" stroke-linecap="round" stroke-linejoin="round" stroke-width="1"/>
          <path id="Path_1077" data-name="Path 1077" d="M330.406,338.319c1.558.426,1.543,1.119-.034,1.547a12.729,12.729,0,0,1-5.679,0c-1.558-.427-1.541-1.12.038-1.547A12.739,12.739,0,0,1,330.406,338.319Z" transform="translate(-275.953 -324.973)" fill="none" stroke="#000" stroke-linecap="round" stroke-linejoin="round" stroke-width="1"/>
          <path id="Path_1078" data-name="Path 1078" d="M350.811,343.906c1.561.427,1.549,1.121-.028,1.55a12.727,12.727,0,0,1-5.684,0c-1.561-.428-1.546-1.122.031-1.551A12.73,12.73,0,0,1,350.811,343.906Z" transform="translate(-286.786 -327.939)" fill="none" stroke="#000" stroke-linecap="round" stroke-linejoin="round" stroke-width="1"/>
          <path id="Path_1079" data-name="Path 1079" d="M371.255,349.5c1.564.428,1.555,1.123-.022,1.553a12.724,12.724,0,0,1-5.687,0c-1.564-.429-1.552-1.124.025-1.554A12.723,12.723,0,0,1,371.255,349.5Z" transform="translate(-297.64 -330.911)" fill="none" stroke="#000" stroke-linecap="round" stroke-linejoin="round" stroke-width="1"/>
          <path id="Path_1080" data-name="Path 1080" d="M391.736,355.11c1.567.429,1.56,1.126-.015,1.557a12.708,12.708,0,0,1-5.692,0c-1.567-.429-1.558-1.126.019-1.557A12.719,12.719,0,0,1,391.736,355.11Z" transform="translate(-308.515 -333.888)" fill="none" stroke="#000" stroke-linecap="round" stroke-linejoin="round" stroke-width="1"/>
          <path id="Path_1081" data-name="Path 1081" d="M412.255,360.728c1.57.43,1.567,1.128-.008,1.56a12.7,12.7,0,0,1-5.7,0c-1.569-.43-1.563-1.128.012-1.56A12.71,12.71,0,0,1,412.255,360.728Z" transform="translate(-319.409 -336.87)" fill="none" stroke="#000" stroke-linecap="round" stroke-linejoin="round" stroke-width="1"/>
          <path id="Path_1082" data-name="Path 1082" d="M432.813,366.356c1.573.431,1.572,1.13,0,1.563a12.7,12.7,0,0,1-5.7,0c-1.572-.431-1.569-1.131.006-1.563A12.7,12.7,0,0,1,432.813,366.356Z" transform="translate(-330.324 -339.859)" fill="none" stroke="#000" stroke-linecap="round" stroke-linejoin="round" stroke-width="1"/>
          <path id="Path_1083" data-name="Path 1083" d="M453.409,372c1.575.431,1.578,1.133,0,1.566a12.687,12.687,0,0,1-5.7,0c-1.575-.432-1.575-1.133,0-1.567A12.691,12.691,0,0,1,453.409,372Z" transform="translate(-341.259 -342.852)" fill="none" stroke="#000" stroke-linecap="round" stroke-linejoin="round" stroke-width="1"/>
        </g>
        <g id="Group_536" data-name="Group 536" transform="translate(9.711 25.547)">
          <path id="Path_1084" data-name="Path 1084" d="M249.639,305.013c1.543.422,1.517,1.105-.06,1.527a12.764,12.764,0,0,1-5.65,0c-1.543-.422-1.514-1.106.063-1.528A12.768,12.768,0,0,1,249.639,305.013Z" transform="translate(-242.79 -304.697)" fill="none" stroke="#000" stroke-linecap="round" stroke-linejoin="round" stroke-width="1"/>
          <path id="Path_1085" data-name="Path 1085" d="M269.847,310.536c1.546.423,1.522,1.107-.053,1.53a12.756,12.756,0,0,1-5.655,0c-1.545-.423-1.52-1.108.057-1.53A12.764,12.764,0,0,1,269.847,310.536Z" transform="translate(-253.52 -307.629)" fill="none" stroke="#000" stroke-linecap="round" stroke-linejoin="round" stroke-width="1"/>
          <path id="Path_1086" data-name="Path 1086" d="M290.093,316.068c1.549.423,1.528,1.11-.047,1.534a12.75,12.75,0,0,1-5.658,0c-1.549-.424-1.526-1.111.051-1.534A12.748,12.748,0,0,1,290.093,316.068Z" transform="translate(-264.269 -310.566)" fill="none" stroke="#000" stroke-linecap="round" stroke-linejoin="round" stroke-width="1"/>
          <path id="Path_1087" data-name="Path 1087" d="M310.376,321.611c1.552.424,1.534,1.112-.04,1.537a12.743,12.743,0,0,1-5.663,0c-1.552-.424-1.531-1.113.044-1.537A12.747,12.747,0,0,1,310.376,321.611Z" transform="translate(-275.038 -313.509)" fill="none" stroke="#000" stroke-linecap="round" stroke-linejoin="round" stroke-width="1"/>
          <path id="Path_1088" data-name="Path 1088" d="M330.7,327.164c1.554.425,1.539,1.114-.034,1.54a12.733,12.733,0,0,1-5.666,0c-1.554-.425-1.537-1.115.038-1.54A12.745,12.745,0,0,1,330.7,327.164Z" transform="translate(-285.827 -316.457)" fill="none" stroke="#000" stroke-linecap="round" stroke-linejoin="round" stroke-width="1"/>
          <path id="Path_1089" data-name="Path 1089" d="M351.056,332.727c1.557.425,1.545,1.116-.027,1.543a12.724,12.724,0,0,1-5.671,0c-1.557-.426-1.543-1.117.031-1.543A12.726,12.726,0,0,1,351.056,332.727Z" transform="translate(-296.636 -319.411)" fill="none" stroke="#000" stroke-linecap="round" stroke-linejoin="round" stroke-width="1"/>
          <path id="Path_1090" data-name="Path 1090" d="M371.452,338.3c1.56.426,1.551,1.119-.021,1.546a12.715,12.715,0,0,1-5.675,0c-1.56-.427-1.549-1.119.025-1.546A12.726,12.726,0,0,1,371.452,338.3Z" transform="translate(-307.465 -322.37)" fill="none" stroke="#000" stroke-linecap="round" stroke-linejoin="round" stroke-width="1"/>
          <path id="Path_1091" data-name="Path 1091" d="M391.887,343.885c1.563.427,1.557,1.121-.015,1.55a12.713,12.713,0,0,1-5.679,0c-1.563-.427-1.554-1.121.018-1.55A12.716,12.716,0,0,1,391.887,343.885Z" transform="translate(-318.314 -325.335)" fill="none" stroke="#000" stroke-linecap="round" stroke-linejoin="round" stroke-width="1"/>
          <path id="Path_1092" data-name="Path 1092" d="M412.359,349.48c1.566.428,1.563,1.123-.008,1.553a12.7,12.7,0,0,1-5.683,0c-1.566-.429-1.56-1.124.012-1.553A12.707,12.707,0,0,1,412.359,349.48Z" transform="translate(-329.184 -328.305)" fill="none" stroke="#000" stroke-linecap="round" stroke-linejoin="round" stroke-width="1"/>
          <path id="Path_1093" data-name="Path 1093" d="M432.87,355.085c1.569.429,1.568,1.125,0,1.556a12.694,12.694,0,0,1-5.687,0c-1.569-.429-1.566-1.126.006-1.556A12.7,12.7,0,0,1,432.87,355.085Z" transform="translate(-340.074 -331.281)" fill="none" stroke="#000" stroke-linecap="round" stroke-linejoin="round" stroke-width="1"/>
          <path id="Path_1094" data-name="Path 1094" d="M453.419,360.7c1.572.429,1.575,1.128,0,1.559a12.685,12.685,0,0,1-5.691,0c-1.572-.43-1.572-1.128,0-1.56A12.689,12.689,0,0,1,453.419,360.7Z" transform="translate(-350.984 -334.263)" fill="none" stroke="#000" stroke-linecap="round" stroke-linejoin="round" stroke-width="1"/>
          <path id="Path_1095" data-name="Path 1095" d="M474.006,366.326c1.575.431,1.58,1.13.011,1.562a12.682,12.682,0,0,1-5.695,0c-1.575-.431-1.578-1.131-.007-1.563A12.685,12.685,0,0,1,474.006,366.326Z" transform="translate(-361.914 -337.249)" fill="none" stroke="#000" stroke-linecap="round" stroke-linejoin="round" stroke-width="1"/>
        </g>
        <g id="Group_537" data-name="Group 537" transform="translate(19.396 22.962)">
          <path id="Path_1096" data-name="Path 1096" d="M270.275,299.5c1.542.421,1.519,1.1-.053,1.523a12.759,12.759,0,0,1-5.641,0c-1.542-.421-1.516-1.1.056-1.524A12.757,12.757,0,0,1,270.275,299.5Z" transform="translate(-263.44 -299.184)" fill="none" stroke="#000" stroke-linecap="round" stroke-linejoin="round" stroke-width="1"/>
          <path id="Path_1097" data-name="Path 1097" d="M290.474,305.009c1.545.422,1.525,1.1-.046,1.527a12.75,12.75,0,0,1-5.646,0c-1.545-.422-1.522-1.106.051-1.527A12.751,12.751,0,0,1,290.474,305.009Z" transform="translate(-274.165 -302.109)" fill="none" stroke="#000" stroke-linecap="round" stroke-linejoin="round" stroke-width="1"/>
          <path id="Path_1098" data-name="Path 1098" d="M310.712,310.529c1.548.423,1.53,1.107-.04,1.53a12.733,12.733,0,0,1-5.649,0c-1.548-.423-1.528-1.107.044-1.53A12.752,12.752,0,0,1,310.712,310.529Z" transform="translate(-284.909 -305.04)" fill="none" stroke="#000" stroke-linecap="round" stroke-linejoin="round" stroke-width="1"/>
          <path id="Path_1099" data-name="Path 1099" d="M330.986,316.059c1.551.423,1.536,1.109-.034,1.533a12.73,12.73,0,0,1-5.654,0c-1.551-.423-1.533-1.11.038-1.533A12.741,12.741,0,0,1,330.986,316.059Z" transform="translate(-295.674 -307.976)" fill="none" stroke="#000" stroke-linecap="round" stroke-linejoin="round" stroke-width="1"/>
          <path id="Path_1100" data-name="Path 1100" d="M351.3,321.6c1.553.424,1.542,1.112-.028,1.536a12.72,12.72,0,0,1-5.657,0c-1.554-.424-1.539-1.112.031-1.536A12.732,12.732,0,0,1,351.3,321.6Z" transform="translate(-306.459 -310.917)" fill="none" stroke="#000" stroke-linecap="round" stroke-linejoin="round" stroke-width="1"/>
          <path id="Path_1101" data-name="Path 1101" d="M371.649,327.15c1.557.425,1.548,1.114-.021,1.539a12.717,12.717,0,0,1-5.662,0c-1.557-.425-1.545-1.114.025-1.54A12.722,12.722,0,0,1,371.649,327.15Z" transform="translate(-317.263 -313.864)" fill="none" stroke="#000" stroke-linecap="round" stroke-linejoin="round" stroke-width="1"/>
          <path id="Path_1102" data-name="Path 1102" d="M392.037,332.711c1.559.425,1.554,1.116-.015,1.543a12.716,12.716,0,0,1-5.666,0c-1.559-.426-1.551-1.117.019-1.543A12.7,12.7,0,0,1,392.037,332.711Z" transform="translate(-328.088 -316.817)" fill="none" stroke="#000" stroke-linecap="round" stroke-linejoin="round" stroke-width="1"/>
          <path id="Path_1103" data-name="Path 1103" d="M412.463,338.283c1.562.426,1.559,1.118-.008,1.545a12.7,12.7,0,0,1-5.67,0c-1.562-.427-1.556-1.119.012-1.546A12.7,12.7,0,0,1,412.463,338.283Z" transform="translate(-338.933 -319.775)" fill="none" stroke="#000" stroke-linecap="round" stroke-linejoin="round" stroke-width="1"/>
          <path id="Path_1104" data-name="Path 1104" d="M432.927,343.864c1.565.427,1.565,1.12,0,1.549a12.7,12.7,0,0,1-5.674,0c-1.565-.427-1.562-1.121.006-1.549A12.7,12.7,0,0,1,432.927,343.864Z" transform="translate(-349.797 -322.738)" fill="none" stroke="#000" stroke-linecap="round" stroke-linejoin="round" stroke-width="1"/>
          <path id="Path_1105" data-name="Path 1105" d="M453.428,349.456c1.568.428,1.571,1.122.005,1.552a12.689,12.689,0,0,1-5.678,0c-1.568-.428-1.568-1.123,0-1.552A12.69,12.69,0,0,1,453.428,349.456Z" transform="translate(-360.683 -325.707)" fill="none" stroke="#000" stroke-linecap="round" stroke-linejoin="round" stroke-width="1"/>
          <path id="Path_1106" data-name="Path 1106" d="M473.968,355.059c1.571.428,1.577,1.125.012,1.555a12.679,12.679,0,0,1-5.682,0c-1.571-.429-1.574-1.126-.008-1.556A12.682,12.682,0,0,1,473.968,355.059Z" transform="translate(-371.588 -328.682)" fill="none" stroke="#000" stroke-linecap="round" stroke-linejoin="round" stroke-width="1"/>
          <path id="Path_1107" data-name="Path 1107" d="M494.547,360.672c1.574.43,1.582,1.127.018,1.559a12.676,12.676,0,0,1-5.686,0c-1.574-.43-1.58-1.128-.014-1.559A12.68,12.68,0,0,1,494.547,360.672Z" transform="translate(-382.514 -331.662)" fill="none" stroke="#000" stroke-linecap="round" stroke-linejoin="round" stroke-width="1"/>
        </g>
        <g id="Group_538" data-name="Group 538" transform="translate(29.055 20.383)">
          <path id="Path_1108" data-name="Path 1108" d="M290.854,294c1.542.42,1.522,1.1-.046,1.52a12.748,12.748,0,0,1-5.633,0c-1.541-.42-1.519-1.1.05-1.52A12.744,12.744,0,0,1,290.854,294Z" transform="translate(-284.034 -293.685)" fill="none" stroke="#000" stroke-linecap="round" stroke-linejoin="round" stroke-width="1"/>
          <path id="Path_1109" data-name="Path 1109" d="M311.046,299.5c1.544.42,1.527,1.1-.04,1.523a12.738,12.738,0,0,1-5.637,0c-1.544-.421-1.524-1.1.044-1.523A12.748,12.748,0,0,1,311.046,299.5Z" transform="translate(-294.754 -296.604)" fill="none" stroke="#000" stroke-linecap="round" stroke-linejoin="round" stroke-width="1"/>
          <path id="Path_1110" data-name="Path 1110" d="M331.275,305.005c1.547.421,1.533,1.1-.034,1.526a12.733,12.733,0,0,1-5.641,0c-1.547-.422-1.53-1.1.037-1.526A12.733,12.733,0,0,1,331.275,305.005Z" transform="translate(-305.494 -299.528)" fill="none" stroke="#000" stroke-linecap="round" stroke-linejoin="round" stroke-width="1"/>
          <path id="Path_1111" data-name="Path 1111" d="M351.541,310.523c1.55.422,1.538,1.106-.027,1.529a12.725,12.725,0,0,1-5.645,0c-1.55-.422-1.536-1.107.031-1.529A12.722,12.722,0,0,1,351.541,310.523Z" transform="translate(-316.254 -302.457)" fill="none" stroke="#000" stroke-linecap="round" stroke-linejoin="round" stroke-width="1"/>
          <path id="Path_1112" data-name="Path 1112" d="M371.845,316.05c1.553.423,1.544,1.109-.021,1.532a12.714,12.714,0,0,1-5.648,0c-1.553-.423-1.542-1.109.024-1.532A12.72,12.72,0,0,1,371.845,316.05Z" transform="translate(-327.034 -305.392)" fill="none" stroke="#000" stroke-linecap="round" stroke-linejoin="round" stroke-width="1"/>
          <path id="Path_1113" data-name="Path 1113" d="M392.186,321.588c1.556.424,1.55,1.111-.015,1.536a12.7,12.7,0,0,1-5.653,0c-1.556-.424-1.547-1.112.018-1.536A12.71,12.71,0,0,1,392.186,321.588Z" transform="translate(-337.834 -308.332)" fill="none" stroke="#000" stroke-linecap="round" stroke-linejoin="round" stroke-width="1"/>
          <path id="Path_1114" data-name="Path 1114" d="M412.566,327.137c1.559.424,1.556,1.113-.008,1.538a12.7,12.7,0,0,1-5.657,0c-1.559-.424-1.553-1.113.012-1.538A12.7,12.7,0,0,1,412.566,327.137Z" transform="translate(-348.654 -311.278)" fill="none" stroke="#000" stroke-linecap="round" stroke-linejoin="round" stroke-width="1"/>
          <path id="Path_1115" data-name="Path 1115" d="M432.983,332.7c1.562.425,1.562,1.115,0,1.542a12.7,12.7,0,0,1-5.661,0c-1.561-.425-1.559-1.116.006-1.542A12.7,12.7,0,0,1,432.983,332.7Z" transform="translate(-359.494 -314.23)" fill="none" stroke="#000" stroke-linecap="round" stroke-linejoin="round" stroke-width="1"/>
          <path id="Path_1116" data-name="Path 1116" d="M453.438,338.264c1.565.426,1.567,1.118.005,1.545a12.679,12.679,0,0,1-5.665,0c-1.564-.426-1.564-1.118,0-1.545A12.688,12.688,0,0,1,453.438,338.264Z" transform="translate(-370.355 -317.186)" fill="none" stroke="#000" stroke-linecap="round" stroke-linejoin="round" stroke-width="1"/>
          <path id="Path_1117" data-name="Path 1117" d="M473.931,343.843c1.567.427,1.573,1.12.011,1.548a12.668,12.668,0,0,1-5.669,0c-1.568-.427-1.571-1.121-.008-1.548A12.679,12.679,0,0,1,473.931,343.843Z" transform="translate(-381.235 -320.148)" fill="none" stroke="#000" stroke-linecap="round" stroke-linejoin="round" stroke-width="1"/>
          <path id="Path_1118" data-name="Path 1118" d="M494.462,349.433c1.571.428,1.579,1.122.018,1.552a12.665,12.665,0,0,1-5.673,0c-1.57-.428-1.576-1.123-.014-1.552A12.675,12.675,0,0,1,494.462,349.433Z" transform="translate(-392.136 -323.116)" fill="none" stroke="#000" stroke-linecap="round" stroke-linejoin="round" stroke-width="1"/>
          <path id="Path_1119" data-name="Path 1119" d="M515.032,355.033c1.573.428,1.585,1.124.024,1.555a12.667,12.667,0,0,1-5.678,0c-1.573-.429-1.582-1.125-.02-1.555A12.668,12.668,0,0,1,515.032,355.033Z" transform="translate(-403.057 -326.089)" fill="none" stroke="#000" stroke-linecap="round" stroke-linejoin="round" stroke-width="1"/>
        </g>
        <g id="Group_539" data-name="Group 539" transform="translate(38.688 17.811)">
          <path id="Path_1120" data-name="Path 1120" d="M311.378,288.516c1.541.419,1.523,1.1-.04,1.516a12.736,12.736,0,0,1-5.624,0c-1.541-.419-1.521-1.1.044-1.516A12.747,12.747,0,0,1,311.378,288.516Z" transform="translate(-304.571 -288.202)" fill="none" stroke="#000" stroke-linecap="round" stroke-linejoin="round" stroke-width="1"/>
          <path id="Path_1121" data-name="Path 1121" d="M331.562,294c1.544.419,1.529,1.1-.033,1.519a12.726,12.726,0,0,1-5.628,0c-1.544-.42-1.527-1.1.037-1.519A12.73,12.73,0,0,1,331.562,294Z" transform="translate(-315.288 -291.114)" fill="none" stroke="#000" stroke-linecap="round" stroke-linejoin="round" stroke-width="1"/>
          <path id="Path_1122" data-name="Path 1122" d="M351.782,299.5c1.546.42,1.535,1.1-.027,1.522a12.717,12.717,0,0,1-5.632,0c-1.547-.421-1.532-1.1.031-1.522A12.728,12.728,0,0,1,351.782,299.5Z" transform="translate(-326.023 -294.031)" fill="none" stroke="#000" stroke-linecap="round" stroke-linejoin="round" stroke-width="1"/>
          <path id="Path_1123" data-name="Path 1123" d="M372.04,305c1.55.421,1.541,1.1-.021,1.525a12.72,12.72,0,0,1-5.636,0c-1.55-.422-1.538-1.1.024-1.525A12.718,12.718,0,0,1,372.04,305Z" transform="translate(-336.779 -296.954)" fill="none" stroke="#000" stroke-linecap="round" stroke-linejoin="round" stroke-width="1"/>
          <path id="Path_1124" data-name="Path 1124" d="M392.336,310.516c1.552.422,1.546,1.106-.015,1.529a12.7,12.7,0,0,1-5.64,0c-1.552-.422-1.544-1.106.018-1.529A12.715,12.715,0,0,1,392.336,310.516Z" transform="translate(-347.554 -299.882)" fill="none" stroke="#000" stroke-linecap="round" stroke-linejoin="round" stroke-width="1"/>
          <path id="Path_1125" data-name="Path 1125" d="M412.668,316.042c1.556.423,1.552,1.108-.008,1.532a12.7,12.7,0,0,1-5.644,0c-1.555-.423-1.55-1.109.012-1.532A12.711,12.711,0,0,1,412.668,316.042Z" transform="translate(-358.35 -302.816)" fill="none" stroke="#000" stroke-linecap="round" stroke-linejoin="round" stroke-width="1"/>
          <path id="Path_1126" data-name="Path 1126" d="M433.039,321.578c1.558.423,1.558,1.11,0,1.535a12.692,12.692,0,0,1-5.648,0c-1.558-.423-1.555-1.111.006-1.535A12.7,12.7,0,0,1,433.039,321.578Z" transform="translate(-369.165 -305.755)" fill="none" stroke="#000" stroke-linecap="round" stroke-linejoin="round" stroke-width="1"/>
          <path id="Path_1127" data-name="Path 1127" d="M453.448,327.123c1.561.424,1.564,1.113,0,1.538a12.681,12.681,0,0,1-5.652,0c-1.561-.424-1.561-1.113,0-1.538A12.69,12.69,0,0,1,453.448,327.123Z" transform="translate(-380.001 -308.699)" fill="none" stroke="#000" stroke-linecap="round" stroke-linejoin="round" stroke-width="1"/>
          <path id="Path_1128" data-name="Path 1128" d="M473.894,332.68c1.564.425,1.57,1.115.011,1.541a12.679,12.679,0,0,1-5.656,0c-1.564-.426-1.567-1.116-.008-1.542A12.683,12.683,0,0,1,473.894,332.68Z" transform="translate(-390.856 -311.649)" fill="none" stroke="#000" stroke-linecap="round" stroke-linejoin="round" stroke-width="1"/>
          <path id="Path_1129" data-name="Path 1129" d="M494.378,338.246c1.567.426,1.575,1.117.018,1.544a12.67,12.67,0,0,1-5.66,0c-1.567-.426-1.573-1.118-.014-1.544A12.672,12.672,0,0,1,494.378,338.246Z" transform="translate(-401.732 -314.605)" fill="none" stroke="#000" stroke-linecap="round" stroke-linejoin="round" stroke-width="1"/>
          <path id="Path_1130" data-name="Path 1130" d="M514.9,343.823c1.57.427,1.581,1.12.024,1.548a12.66,12.66,0,0,1-5.664,0c-1.57-.427-1.579-1.12-.021-1.548A12.671,12.671,0,0,1,514.9,343.823Z" transform="translate(-412.628 -317.566)" fill="none" stroke="#000" stroke-linecap="round" stroke-linejoin="round" stroke-width="1"/>
          <path id="Path_1131" data-name="Path 1131" d="M535.461,349.41c1.573.427,1.587,1.121.031,1.551a12.651,12.651,0,0,1-5.668,0c-1.573-.428-1.584-1.122-.027-1.551A12.655,12.655,0,0,1,535.461,349.41Z" transform="translate(-423.544 -320.532)" fill="none" stroke="#000" stroke-linecap="round" stroke-linejoin="round" stroke-width="1"/>
        </g>
        <g id="Group_540" data-name="Group 540" transform="translate(76.961 7.592)">
          <path id="Path_1132" data-name="Path 1132" d="M392.925,266.727c1.538.415,1.533,1.087-.014,1.5a12.7,12.7,0,0,1-5.589,0c-1.538-.416-1.53-1.088.018-1.5A12.709,12.709,0,0,1,392.925,266.727Z" transform="translate(-386.173 -266.415)" fill="none" stroke="#000" stroke-linecap="round" stroke-linejoin="round" stroke-width="1"/>
          <path id="Path_1133" data-name="Path 1133" d="M413.075,272.162c1.541.416,1.538,1.089-.008,1.5a12.694,12.694,0,0,1-5.593,0c-1.541-.416-1.536-1.09.012-1.5A12.707,12.707,0,0,1,413.075,272.162Z" transform="translate(-396.871 -269.301)" fill="none" stroke="#000" stroke-linecap="round" stroke-linejoin="round" stroke-width="1"/>
          <path id="Path_1134" data-name="Path 1134" d="M433.261,277.608c1.544.416,1.544,1.091,0,1.507a12.684,12.684,0,0,1-5.6,0c-1.544-.417-1.541-1.091.005-1.507A12.689,12.689,0,0,1,433.261,277.608Z" transform="translate(-407.589 -272.192)" fill="none" stroke="#000" stroke-linecap="round" stroke-linejoin="round" stroke-width="1"/>
          <path id="Path_1135" data-name="Path 1135" d="M453.485,283.063c1.547.417,1.55,1.093,0,1.51a12.687,12.687,0,0,1-5.6,0c-1.547-.418-1.547-1.094,0-1.511A12.687,12.687,0,0,1,453.485,283.063Z" transform="translate(-418.327 -275.088)" fill="none" stroke="#000" stroke-linecap="round" stroke-linejoin="round" stroke-width="1"/>
          <path id="Path_1136" data-name="Path 1136" d="M473.746,288.529c1.55.418,1.555,1.1.011,1.513a12.678,12.678,0,0,1-5.6,0c-1.55-.418-1.552-1.1-.007-1.514A12.675,12.675,0,0,1,473.746,288.529Z" transform="translate(-429.084 -277.99)" fill="none" stroke="#000" stroke-linecap="round" stroke-linejoin="round" stroke-width="1"/>
          <path id="Path_1137" data-name="Path 1137" d="M494.044,294c1.552.419,1.561,1.1.017,1.516a12.668,12.668,0,0,1-5.609,0c-1.552-.419-1.559-1.1-.014-1.516A12.667,12.667,0,0,1,494.044,294Z" transform="translate(-439.861 -280.897)" fill="none" stroke="#000" stroke-linecap="round" stroke-linejoin="round" stroke-width="1"/>
          <path id="Path_1138" data-name="Path 1138" d="M514.38,299.49c1.556.419,1.567,1.1.024,1.52a12.658,12.658,0,0,1-5.613,0c-1.555-.42-1.564-1.1-.02-1.52A12.67,12.67,0,0,1,514.38,299.49Z" transform="translate(-450.658 -283.81)" fill="none" stroke="#000" stroke-linecap="round" stroke-linejoin="round" stroke-width="1"/>
          <path id="Path_1139" data-name="Path 1139" d="M534.753,304.985c1.559.42,1.573,1.1.031,1.523a12.654,12.654,0,0,1-5.617,0c-1.559-.421-1.57-1.1-.027-1.523A12.658,12.658,0,0,1,534.753,304.985Z" transform="translate(-461.475 -286.728)" fill="none" stroke="#000" stroke-linecap="round" stroke-linejoin="round" stroke-width="1"/>
          <path id="Path_1140" data-name="Path 1140" d="M555.164,310.491c1.561.421,1.578,1.1.037,1.526a12.637,12.637,0,0,1-5.62,0c-1.561-.422-1.576-1.105-.033-1.526A12.656,12.656,0,0,1,555.164,310.491Z" transform="translate(-472.312 -289.651)" fill="none" stroke="#000" stroke-linecap="round" stroke-linejoin="round" stroke-width="1"/>
          <path id="Path_1141" data-name="Path 1141" d="M575.612,316.007c1.564.422,1.584,1.106.043,1.529a12.642,12.642,0,0,1-5.624,0c-1.564-.423-1.581-1.107-.039-1.53A12.638,12.638,0,0,1,575.612,316.007Z" transform="translate(-483.168 -292.579)" fill="none" stroke="#000" stroke-linecap="round" stroke-linejoin="round" stroke-width="1"/>
          <path id="Path_1142" data-name="Path 1142" d="M596.1,321.533c1.567.423,1.59,1.109.05,1.532a12.632,12.632,0,0,1-5.628,0c-1.567-.424-1.587-1.109-.046-1.532A12.635,12.635,0,0,1,596.1,321.533Z" transform="translate(-494.045 -295.513)" fill="none" stroke="#000" stroke-linecap="round" stroke-linejoin="round" stroke-width="1"/>
          <path id="Path_1143" data-name="Path 1143" d="M616.623,327.069c1.57.424,1.6,1.111.056,1.536a12.622,12.622,0,0,1-5.633,0c-1.57-.424-1.593-1.112-.053-1.536A12.634,12.634,0,0,1,616.623,327.069Z" transform="translate(-504.942 -298.453)" fill="none" stroke="#000" stroke-linecap="round" stroke-linejoin="round" stroke-width="1"/>
        </g>
        <g id="Group_541" data-name="Group 541" transform="translate(86.466 5.055)">
          <path id="Path_1144" data-name="Path 1144" d="M413.175,261.316c1.537.414,1.535,1.084-.008,1.5a12.694,12.694,0,0,1-5.58,0c-1.537-.415-1.532-1.085.012-1.5A12.7,12.7,0,0,1,413.175,261.316Z" transform="translate(-406.437 -261.005)" fill="none" stroke="#000" stroke-linecap="round" stroke-linejoin="round" stroke-width="1"/>
          <path id="Path_1145" data-name="Path 1145" d="M433.316,266.739c1.541.415,1.54,1.087,0,1.5a12.683,12.683,0,0,1-5.584,0c-1.54-.415-1.537-1.087.006-1.5A12.7,12.7,0,0,1,433.316,266.739Z" transform="translate(-417.131 -263.884)" fill="none" stroke="#000" stroke-linecap="round" stroke-linejoin="round" stroke-width="1"/>
          <path id="Path_1146" data-name="Path 1146" d="M453.494,272.172c1.544.416,1.546,1.089,0,1.5a12.681,12.681,0,0,1-5.588,0c-1.543-.416-1.543-1.09,0-1.5A12.686,12.686,0,0,1,453.494,272.172Z" transform="translate(-427.844 -266.769)" fill="none" stroke="#000" stroke-linecap="round" stroke-linejoin="round" stroke-width="1"/>
          <path id="Path_1147" data-name="Path 1147" d="M473.71,277.616c1.546.416,1.552,1.09.011,1.507a12.685,12.685,0,0,1-5.592,0c-1.546-.417-1.549-1.091-.008-1.507A12.675,12.675,0,0,1,473.71,277.616Z" transform="translate(-438.577 -269.659)" fill="none" stroke="#000" stroke-linecap="round" stroke-linejoin="round" stroke-width="1"/>
          <path id="Path_1148" data-name="Path 1148" d="M493.962,283.068c1.549.417,1.558,1.093.017,1.51a12.667,12.667,0,0,1-5.6,0c-1.549-.417-1.555-1.093-.014-1.51A12.671,12.671,0,0,1,493.962,283.068Z" transform="translate(-449.33 -272.554)" fill="none" stroke="#000" stroke-linecap="round" stroke-linejoin="round" stroke-width="1"/>
          <path id="Path_1149" data-name="Path 1149" d="M514.251,288.532c1.552.418,1.563,1.1.024,1.513a12.657,12.657,0,0,1-5.6,0c-1.552-.418-1.56-1.1-.02-1.513A12.659,12.659,0,0,1,514.251,288.532Z" transform="translate(-460.102 -275.454)" fill="none" stroke="#000" stroke-linecap="round" stroke-linejoin="round" stroke-width="1"/>
          <path id="Path_1150" data-name="Path 1150" d="M534.578,294c1.555.419,1.569,1.1.031,1.516a12.649,12.649,0,0,1-5.6,0c-1.555-.419-1.566-1.1-.026-1.516A12.658,12.658,0,0,1,534.578,294Z" transform="translate(-470.894 -278.36)" fill="none" stroke="#000" stroke-linecap="round" stroke-linejoin="round" stroke-width="1"/>
          <path id="Path_1151" data-name="Path 1151" d="M554.943,299.488c1.558.419,1.575,1.1.037,1.519a12.636,12.636,0,0,1-5.608,0c-1.558-.42-1.572-1.1-.033-1.519A12.647,12.647,0,0,1,554.943,299.488Z" transform="translate(-481.706 -281.271)" fill="none" stroke="#000" stroke-linecap="round" stroke-linejoin="round" stroke-width="1"/>
          <path id="Path_1152" data-name="Path 1152" d="M575.345,304.981c1.56.42,1.58,1.1.043,1.522a12.628,12.628,0,0,1-5.612,0c-1.56-.42-1.578-1.1-.039-1.522A12.637,12.637,0,0,1,575.345,304.981Z" transform="translate(-492.538 -284.188)" fill="none" stroke="#000" stroke-linecap="round" stroke-linejoin="round" stroke-width="1"/>
          <path id="Path_1153" data-name="Path 1153" d="M595.784,310.485c1.564.421,1.586,1.1.05,1.525a12.632,12.632,0,0,1-5.616,0c-1.563-.422-1.583-1.1-.045-1.525A12.627,12.627,0,0,1,595.784,310.485Z" transform="translate(-503.39 -287.11)" fill="none" stroke="#000" stroke-linecap="round" stroke-linejoin="round" stroke-width="1"/>
          <path id="Path_1154" data-name="Path 1154" d="M616.261,316c1.567.422,1.592,1.106.056,1.528a12.614,12.614,0,0,1-5.62,0c-1.566-.422-1.589-1.106-.052-1.529A12.624,12.624,0,0,1,616.261,316Z" transform="translate(-514.262 -290.037)" fill="none" stroke="#000" stroke-linecap="round" stroke-linejoin="round" stroke-width="1"/>
          <path id="Path_1155" data-name="Path 1155" d="M636.776,321.522c1.569.423,1.6,1.108.062,1.531a12.611,12.611,0,0,1-5.624,0c-1.569-.423-1.6-1.109-.059-1.532A12.621,12.621,0,0,1,636.776,321.522Z" transform="translate(-525.155 -292.97)" fill="none" stroke="#000" stroke-linecap="round" stroke-linejoin="round" stroke-width="1"/>
        </g>
        <g id="Group_542" data-name="Group 542" transform="translate(95.944 2.524)">
          <path id="Path_1156" data-name="Path 1156" d="M433.37,255.92c1.537.413,1.537,1.082,0,1.493a12.689,12.689,0,0,1-5.572,0c-1.537-.413-1.535-1.082.005-1.493A12.687,12.687,0,0,1,433.37,255.92Z" transform="translate(-426.646 -255.609)" fill="none" stroke="#000" stroke-linecap="round" stroke-linejoin="round" stroke-width="1"/>
          <path id="Path_1157" data-name="Path 1157" d="M453.5,261.331c1.54.414,1.543,1.084,0,1.5a12.68,12.68,0,0,1-5.576,0c-1.54-.414-1.54-1.084,0-1.5A12.685,12.685,0,0,1,453.5,261.331Z" transform="translate(-437.335 -258.482)" fill="none" stroke="#000" stroke-linecap="round" stroke-linejoin="round" stroke-width="1"/>
          <path id="Path_1158" data-name="Path 1158" d="M473.673,266.751c1.543.415,1.548,1.086.011,1.5a12.677,12.677,0,0,1-5.579,0c-1.543-.415-1.545-1.087-.008-1.5A12.681,12.681,0,0,1,473.673,266.751Z" transform="translate(-448.044 -261.36)" fill="none" stroke="#000" stroke-linecap="round" stroke-linejoin="round" stroke-width="1"/>
          <path id="Path_1159" data-name="Path 1159" d="M493.88,272.182c1.545.415,1.554,1.088.017,1.5a12.668,12.668,0,0,1-5.584,0c-1.545-.416-1.551-1.089-.014-1.5A12.664,12.664,0,0,1,493.88,272.182Z" transform="translate(-458.773 -264.243)" fill="none" stroke="#000" stroke-linecap="round" stroke-linejoin="round" stroke-width="1"/>
          <path id="Path_1160" data-name="Path 1160" d="M514.124,277.623c1.549.416,1.56,1.09.024,1.506a12.663,12.663,0,0,1-5.587,0c-1.548-.416-1.557-1.091-.02-1.506A12.661,12.661,0,0,1,514.124,277.623Z" transform="translate(-469.521 -267.132)" fill="none" stroke="#000" stroke-linecap="round" stroke-linejoin="round" stroke-width="1"/>
          <path id="Path_1161" data-name="Path 1161" d="M534.4,283.074c1.551.417,1.565,1.093.03,1.509a12.645,12.645,0,0,1-5.591,0c-1.552-.417-1.563-1.093-.026-1.509A12.656,12.656,0,0,1,534.4,283.074Z" transform="translate(-480.288 -270.026)" fill="none" stroke="#000" stroke-linecap="round" stroke-linejoin="round" stroke-width="1"/>
          <path id="Path_1162" data-name="Path 1162" d="M554.722,288.535c1.554.417,1.571,1.094.037,1.512a12.637,12.637,0,0,1-5.6,0c-1.554-.418-1.568-1.1-.033-1.512A12.641,12.641,0,0,1,554.722,288.535Z" transform="translate(-491.076 -272.925)" fill="none" stroke="#000" stroke-linecap="round" stroke-linejoin="round" stroke-width="1"/>
          <path id="Path_1163" data-name="Path 1163" d="M575.078,294.005c1.557.418,1.577,1.1.043,1.515a12.625,12.625,0,0,1-5.6,0c-1.557-.419-1.574-1.1-.039-1.515A12.636,12.636,0,0,1,575.078,294.005Z" transform="translate(-501.883 -275.83)" fill="none" stroke="#000" stroke-linecap="round" stroke-linejoin="round" stroke-width="1"/>
          <path id="Path_1164" data-name="Path 1164" d="M595.471,299.486c1.56.419,1.583,1.1.049,1.518a12.623,12.623,0,0,1-5.6,0c-1.559-.42-1.58-1.1-.045-1.518A12.634,12.634,0,0,1,595.471,299.486Z" transform="translate(-512.711 -278.74)" fill="none" stroke="#000" stroke-linecap="round" stroke-linejoin="round" stroke-width="1"/>
          <path id="Path_1165" data-name="Path 1165" d="M615.9,304.977c1.563.42,1.588,1.1.056,1.521a12.613,12.613,0,0,1-5.607,0c-1.563-.421-1.585-1.1-.052-1.522A12.623,12.623,0,0,1,615.9,304.977Z" transform="translate(-523.558 -281.655)" fill="none" stroke="#000" stroke-linecap="round" stroke-linejoin="round" stroke-width="1"/>
          <path id="Path_1166" data-name="Path 1166" d="M636.369,310.478c1.566.421,1.594,1.1.062,1.525a12.616,12.616,0,0,1-5.611,0c-1.566-.421-1.591-1.1-.058-1.525A12.613,12.613,0,0,1,636.369,310.478Z" transform="translate(-534.425 -284.576)" fill="none" stroke="#000" stroke-linecap="round" stroke-linejoin="round" stroke-width="1"/>
          <path id="Path_1167" data-name="Path 1167" d="M656.875,315.989c1.568.422,1.6,1.105.068,1.528a12.6,12.6,0,0,1-5.615,0c-1.568-.422-1.6-1.106-.065-1.528A12.61,12.61,0,0,1,656.875,315.989Z" transform="translate(-545.312 -287.502)" fill="none" stroke="#000" stroke-linecap="round" stroke-linejoin="round" stroke-width="1"/>
        </g>
        <g id="Group_543" data-name="Group 543" transform="translate(105.398)">
          <path id="Path_1168" data-name="Path 1168" d="M453.513,250.538c1.537.412,1.539,1.079,0,1.49a12.68,12.68,0,0,1-5.563,0c-1.536-.412-1.536-1.08,0-1.49A12.684,12.684,0,0,1,453.513,250.538Z" transform="translate(-446.802 -250.228)" fill="none" stroke="#000" stroke-linecap="round" stroke-linejoin="round" stroke-width="1"/>
          <path id="Path_1169" data-name="Path 1169" d="M473.637,255.936c1.539.413,1.545,1.082.011,1.493a12.678,12.678,0,0,1-5.567,0c-1.539-.414-1.542-1.082-.007-1.493A12.68,12.68,0,0,1,473.637,255.936Z" transform="translate(-457.486 -253.094)" fill="none" stroke="#000" stroke-linecap="round" stroke-linejoin="round" stroke-width="1"/>
          <path id="Path_1170" data-name="Path 1170" d="M493.8,261.345c1.542.414,1.55,1.084.017,1.5a12.666,12.666,0,0,1-5.571,0c-1.542-.414-1.548-1.084-.014-1.5A12.679,12.679,0,0,1,493.8,261.345Z" transform="translate(-468.191 -255.966)" fill="none" stroke="#000" stroke-linecap="round" stroke-linejoin="round" stroke-width="1"/>
          <path id="Path_1171" data-name="Path 1171" d="M514,266.764c1.545.414,1.556,1.085.023,1.5a12.656,12.656,0,0,1-5.575,0c-1.545-.415-1.553-1.086-.02-1.5A12.66,12.66,0,0,1,514,266.764Z" transform="translate(-478.914 -258.843)" fill="none" stroke="#000" stroke-linecap="round" stroke-linejoin="round" stroke-width="1"/>
          <path id="Path_1172" data-name="Path 1172" d="M534.231,272.193c1.548.415,1.561,1.088.029,1.5a12.651,12.651,0,0,1-5.579,0c-1.548-.416-1.559-1.089-.026-1.5A12.651,12.651,0,0,1,534.231,272.193Z" transform="translate(-489.658 -261.725)" fill="none" stroke="#000" stroke-linecap="round" stroke-linejoin="round" stroke-width="1"/>
          <path id="Path_1173" data-name="Path 1173" d="M554.5,277.631c1.551.416,1.568,1.09.037,1.505a12.642,12.642,0,0,1-5.583,0c-1.551-.416-1.565-1.09-.032-1.506A12.644,12.644,0,0,1,554.5,277.631Z" transform="translate(-500.421 -264.612)" fill="none" stroke="#000" stroke-linecap="round" stroke-linejoin="round" stroke-width="1"/>
          <path id="Path_1174" data-name="Path 1174" d="M574.812,283.079c1.554.417,1.573,1.092.043,1.508a12.63,12.63,0,0,1-5.587,0c-1.553-.417-1.57-1.092-.039-1.508A12.635,12.635,0,0,1,574.812,283.079Z" transform="translate(-511.204 -267.505)" fill="none" stroke="#000" stroke-linecap="round" stroke-linejoin="round" stroke-width="1"/>
          <path id="Path_1175" data-name="Path 1175" d="M595.159,288.537c1.556.418,1.579,1.094.049,1.512a12.621,12.621,0,0,1-5.59,0c-1.556-.418-1.576-1.095-.045-1.512A12.641,12.641,0,0,1,595.159,288.537Z" transform="translate(-522.007 -270.403)" fill="none" stroke="#000" stroke-linecap="round" stroke-linejoin="round" stroke-width="1"/>
          <path id="Path_1176" data-name="Path 1176" d="M615.543,294.006c1.56.418,1.585,1.1.056,1.515a12.619,12.619,0,0,1-5.595,0c-1.559-.419-1.582-1.1-.052-1.515A12.628,12.628,0,0,1,615.543,294.006Z" transform="translate(-532.829 -273.306)" fill="none" stroke="#000" stroke-linecap="round" stroke-linejoin="round" stroke-width="1"/>
          <path id="Path_1177" data-name="Path 1177" d="M635.964,299.484c1.562.419,1.59,1.1.062,1.518a12.61,12.61,0,0,1-5.6,0c-1.562-.419-1.587-1.1-.058-1.518A12.614,12.614,0,0,1,635.964,299.484Z" transform="translate(-543.672 -276.215)" fill="none" stroke="#000" stroke-linecap="round" stroke-linejoin="round" stroke-width="1"/>
          <path id="Path_1178" data-name="Path 1178" d="M656.423,304.973c1.565.42,1.6,1.1.068,1.521a12.6,12.6,0,0,1-5.6,0c-1.565-.42-1.594-1.1-.065-1.521A12.6,12.6,0,0,1,656.423,304.973Z" transform="translate(-554.534 -279.129)" fill="none" stroke="#000" stroke-linecap="round" stroke-linejoin="round" stroke-width="1"/>
          <path id="Path_1179" data-name="Path 1179" d="M676.92,310.472c1.568.421,1.6,1.1.075,1.524a12.6,12.6,0,0,1-5.606,0c-1.568-.421-1.6-1.1-.071-1.524A12.591,12.591,0,0,1,676.92,310.472Z" transform="translate(-565.416 -282.048)" fill="none" stroke="#000" stroke-linecap="round" stroke-linejoin="round" stroke-width="1"/>
        </g>
        <g id="Group_544" data-name="Group 544" transform="translate(67.431 10.137)">
          <path id="Path_1180" data-name="Path 1180" d="M372.62,272.152c1.539.416,1.53,1.09-.021,1.5a12.709,12.709,0,0,1-5.6,0c-1.539-.417-1.528-1.09.024-1.505A12.727,12.727,0,0,1,372.62,272.152Z" transform="translate(-365.855 -271.84)" fill="none" stroke="#000" stroke-linecap="round" stroke-linejoin="round" stroke-width="1"/>
          <path id="Path_1181" data-name="Path 1181" d="M392.778,277.6c1.542.416,1.536,1.091-.014,1.507a12.7,12.7,0,0,1-5.6,0c-1.542-.417-1.534-1.092.018-1.508A12.7,12.7,0,0,1,392.778,277.6Z" transform="translate(-376.557 -274.732)" fill="none" stroke="#000" stroke-linecap="round" stroke-linejoin="round" stroke-width="1"/>
          <path id="Path_1182" data-name="Path 1182" d="M412.973,283.058c1.545.417,1.542,1.094-.008,1.511a12.7,12.7,0,0,1-5.605,0c-1.545-.418-1.539-1.095.011-1.511A12.7,12.7,0,0,1,412.973,283.058Z" transform="translate(-387.28 -277.63)" fill="none" stroke="#000" stroke-linecap="round" stroke-linejoin="round" stroke-width="1"/>
          <path id="Path_1183" data-name="Path 1183" d="M433.206,288.526c1.548.418,1.547,1.1,0,1.514a12.692,12.692,0,0,1-5.61,0c-1.548-.418-1.545-1.1.005-1.514A12.7,12.7,0,0,1,433.206,288.526Z" transform="translate(-398.022 -280.533)" fill="none" stroke="#000" stroke-linecap="round" stroke-linejoin="round" stroke-width="1"/>
          <path id="Path_1184" data-name="Path 1184" d="M453.476,294c1.551.419,1.553,1.1,0,1.517a12.691,12.691,0,0,1-5.614,0c-1.55-.419-1.55-1.1,0-1.517A12.687,12.687,0,0,1,453.476,294Z" transform="translate(-408.784 -283.441)" fill="none" stroke="#000" stroke-linecap="round" stroke-linejoin="round" stroke-width="1"/>
          <path id="Path_1185" data-name="Path 1185" d="M473.783,299.491c1.553.42,1.559,1.1.011,1.52a12.68,12.68,0,0,1-5.617,0c-1.553-.42-1.556-1.1-.007-1.521A12.677,12.677,0,0,1,473.783,299.491Z" transform="translate(-419.565 -286.355)" fill="none" stroke="#000" stroke-linecap="round" stroke-linejoin="round" stroke-width="1"/>
          <path id="Path_1186" data-name="Path 1186" d="M494.127,304.989c1.556.421,1.565,1.1.017,1.523a12.668,12.668,0,0,1-5.621,0c-1.556-.421-1.562-1.1-.014-1.524A12.675,12.675,0,0,1,494.127,304.989Z" transform="translate(-430.367 -289.274)" fill="none" stroke="#000" stroke-linecap="round" stroke-linejoin="round" stroke-width="1"/>
          <path id="Path_1187" data-name="Path 1187" d="M514.509,310.5c1.559.421,1.57,1.1.024,1.526a12.66,12.66,0,0,1-5.625,0c-1.559-.422-1.567-1.105-.02-1.527A12.663,12.663,0,0,1,514.509,310.5Z" transform="translate(-441.188 -292.198)" fill="none" stroke="#000" stroke-linecap="round" stroke-linejoin="round" stroke-width="1"/>
          <path id="Path_1188" data-name="Path 1188" d="M534.929,316.016c1.562.422,1.576,1.107.031,1.53a12.65,12.65,0,0,1-5.629,0c-1.562-.423-1.574-1.107-.027-1.53A12.654,12.654,0,0,1,534.929,316.016Z" transform="translate(-452.03 -295.128)" fill="none" stroke="#000" stroke-linecap="round" stroke-linejoin="round" stroke-width="1"/>
          <path id="Path_1189" data-name="Path 1189" d="M555.386,321.544c1.565.423,1.582,1.109.037,1.533a12.647,12.647,0,0,1-5.633,0c-1.565-.423-1.579-1.11-.033-1.533A12.645,12.645,0,0,1,555.386,321.544Z" transform="translate(-462.891 -298.063)" fill="none" stroke="#000" stroke-linecap="round" stroke-linejoin="round" stroke-width="1"/>
          <path id="Path_1190" data-name="Path 1190" d="M575.882,327.083c1.568.424,1.588,1.111.043,1.536a12.63,12.63,0,0,1-5.637,0c-1.568-.424-1.585-1.112-.04-1.536A12.643,12.643,0,0,1,575.882,327.083Z" transform="translate(-473.773 -301.004)" fill="none" stroke="#000" stroke-linecap="round" stroke-linejoin="round" stroke-width="1"/>
          <path id="Path_1191" data-name="Path 1191" d="M596.415,332.632c1.571.424,1.593,1.113.05,1.539a12.628,12.628,0,0,1-5.641,0c-1.57-.425-1.591-1.114-.046-1.539A12.632,12.632,0,0,1,596.415,332.632Z" transform="translate(-484.675 -303.95)" fill="none" stroke="#000" stroke-linecap="round" stroke-linejoin="round" stroke-width="1"/>
        </g>
        <g id="Group_545" data-name="Group 545" transform="translate(48.295 15.246)">
          <path id="Path_1192" data-name="Path 1192" d="M331.847,283.047c1.54.418,1.526,1.1-.033,1.512a12.725,12.725,0,0,1-5.615,0c-1.54-.418-1.523-1.1.037-1.512A12.735,12.735,0,0,1,331.847,283.047Z" transform="translate(-325.054 -282.733)" fill="none" stroke="#000" stroke-linecap="round" stroke-linejoin="round" stroke-width="1"/>
          <path id="Path_1193" data-name="Path 1193" d="M352.022,288.519c1.543.419,1.531,1.1-.027,1.515a12.72,12.72,0,0,1-5.619,0c-1.543-.419-1.529-1.1.031-1.515A12.731,12.731,0,0,1,352.022,288.519Z" transform="translate(-335.766 -285.639)" fill="none" stroke="#000" stroke-linecap="round" stroke-linejoin="round" stroke-width="1"/>
          <path id="Path_1194" data-name="Path 1194" d="M372.234,294c1.546.419,1.537,1.1-.021,1.518a12.711,12.711,0,0,1-5.623,0c-1.546-.42-1.535-1.1.024-1.519A12.715,12.715,0,0,1,372.234,294Z" transform="translate(-346.497 -288.549)" fill="none" stroke="#000" stroke-linecap="round" stroke-linejoin="round" stroke-width="1"/>
          <path id="Path_1195" data-name="Path 1195" d="M392.484,299.494c1.549.42,1.543,1.1-.014,1.521a12.7,12.7,0,0,1-5.627,0c-1.549-.421-1.54-1.1.018-1.522A12.711,12.711,0,0,1,392.484,299.494Z" transform="translate(-357.248 -291.466)" fill="none" stroke="#000" stroke-linecap="round" stroke-linejoin="round" stroke-width="1"/>
          <path id="Path_1196" data-name="Path 1196" d="M412.771,305c1.552.421,1.549,1.1-.008,1.524a12.706,12.706,0,0,1-5.631,0c-1.552-.422-1.546-1.1.012-1.525A12.7,12.7,0,0,1,412.771,305Z" transform="translate(-368.019 -294.387)" fill="none" stroke="#000" stroke-linecap="round" stroke-linejoin="round" stroke-width="1"/>
          <path id="Path_1197" data-name="Path 1197" d="M433.095,310.51c1.555.422,1.554,1.105,0,1.528a12.684,12.684,0,0,1-5.635,0c-1.554-.422-1.552-1.106.006-1.528A12.691,12.691,0,0,1,433.095,310.51Z" transform="translate(-378.81 -297.314)" fill="none" stroke="#000" stroke-linecap="round" stroke-linejoin="round" stroke-width="1"/>
          <path id="Path_1198" data-name="Path 1198" d="M453.457,316.033c1.558.423,1.56,1.108,0,1.531a12.686,12.686,0,0,1-5.639,0c-1.557-.423-1.557-1.108,0-1.531A12.69,12.69,0,0,1,453.457,316.033Z" transform="translate(-389.621 -300.246)" fill="none" stroke="#000" stroke-linecap="round" stroke-linejoin="round" stroke-width="1"/>
          <path id="Path_1199" data-name="Path 1199" d="M473.856,321.566c1.56.424,1.566,1.11.011,1.534a12.676,12.676,0,0,1-5.643,0c-1.56-.424-1.563-1.111-.007-1.535A12.686,12.686,0,0,1,473.856,321.566Z" transform="translate(-400.452 -303.184)" fill="none" stroke="#000" stroke-linecap="round" stroke-linejoin="round" stroke-width="1"/>
          <path id="Path_1200" data-name="Path 1200" d="M494.294,327.11c1.563.424,1.572,1.112.017,1.537a12.666,12.666,0,0,1-5.647,0c-1.563-.424-1.569-1.113-.014-1.537A12.678,12.678,0,0,1,494.294,327.11Z" transform="translate(-411.303 -306.127)" fill="none" stroke="#000" stroke-linecap="round" stroke-linejoin="round" stroke-width="1"/>
          <path id="Path_1201" data-name="Path 1201" d="M514.769,332.664c1.566.424,1.577,1.114.024,1.54a12.656,12.656,0,0,1-5.651,0c-1.567-.425-1.575-1.115-.021-1.541A12.662,12.662,0,0,1,514.769,332.664Z" transform="translate(-422.174 -309.076)" fill="none" stroke="#000" stroke-linecap="round" stroke-linejoin="round" stroke-width="1"/>
          <path id="Path_1202" data-name="Path 1202" d="M535.283,338.227c1.569.426,1.583,1.117.031,1.544a12.647,12.647,0,0,1-5.655,0c-1.569-.426-1.581-1.117-.027-1.544A12.658,12.658,0,0,1,535.283,338.227Z" transform="translate(-433.065 -312.03)" fill="none" stroke="#000" stroke-linecap="round" stroke-linejoin="round" stroke-width="1"/>
          <path id="Path_1203" data-name="Path 1203" d="M555.834,343.8c1.572.426,1.589,1.119.038,1.547a12.646,12.646,0,0,1-5.659,0c-1.572-.427-1.587-1.12-.034-1.547A12.649,12.649,0,0,1,555.834,343.8Z" transform="translate(-443.976 -314.99)" fill="none" stroke="#000" stroke-linecap="round" stroke-linejoin="round" stroke-width="1"/>
        </g>
        <g id="Group_546" data-name="Group 546" transform="translate(57.876 12.688)">
          <path id="Path_1204" data-name="Path 1204" d="M352.261,277.592c1.54.417,1.529,1.092-.027,1.508a12.719,12.719,0,0,1-5.606,0c-1.54-.417-1.526-1.093.03-1.508A12.718,12.718,0,0,1,352.261,277.592Z" transform="translate(-345.482 -277.279)" fill="none" stroke="#000" stroke-linecap="round" stroke-linejoin="round" stroke-width="1"/>
          <path id="Path_1205" data-name="Path 1205" d="M372.428,283.053c1.543.417,1.534,1.094-.021,1.511a12.711,12.711,0,0,1-5.61,0c-1.543-.418-1.531-1.095.024-1.512A12.714,12.714,0,0,1,372.428,283.053Z" transform="translate(-356.189 -280.178)" fill="none" stroke="#000" stroke-linecap="round" stroke-linejoin="round" stroke-width="1"/>
          <path id="Path_1206" data-name="Path 1206" d="M392.631,288.522c1.545.418,1.54,1.1-.014,1.514a12.706,12.706,0,0,1-5.614,0c-1.545-.419-1.537-1.1.018-1.515A12.711,12.711,0,0,1,392.631,288.522Z" transform="translate(-366.916 -283.082)" fill="none" stroke="#000" stroke-linecap="round" stroke-linejoin="round" stroke-width="1"/>
          <path id="Path_1207" data-name="Path 1207" d="M412.872,294c1.548.419,1.545,1.1-.008,1.518a12.7,12.7,0,0,1-5.618,0c-1.548-.42-1.543-1.1.012-1.518A12.7,12.7,0,0,1,412.872,294Z" transform="translate(-377.663 -285.992)" fill="none" stroke="#000" stroke-linecap="round" stroke-linejoin="round" stroke-width="1"/>
          <path id="Path_1208" data-name="Path 1208" d="M433.151,299.492c1.551.42,1.551,1.1,0,1.521a12.693,12.693,0,0,1-5.622,0c-1.551-.42-1.548-1.1.005-1.521A12.7,12.7,0,0,1,433.151,299.492Z" transform="translate(-388.429 -288.907)" fill="none" stroke="#000" stroke-linecap="round" stroke-linejoin="round" stroke-width="1"/>
          <path id="Path_1209" data-name="Path 1209" d="M453.466,304.993c1.554.421,1.557,1.1,0,1.524a12.685,12.685,0,0,1-5.626,0c-1.554-.421-1.554-1.1,0-1.524A12.7,12.7,0,0,1,453.466,304.993Z" transform="translate(-399.215 -291.827)" fill="none" stroke="#000" stroke-linecap="round" stroke-linejoin="round" stroke-width="1"/>
          <path id="Path_1210" data-name="Path 1210" d="M473.82,310.5c1.557.422,1.562,1.105.011,1.527a12.681,12.681,0,0,1-5.63,0c-1.557-.422-1.56-1.106-.008-1.528A12.684,12.684,0,0,1,473.82,310.5Z" transform="translate(-410.021 -294.753)" fill="none" stroke="#000" stroke-linecap="round" stroke-linejoin="round" stroke-width="1"/>
          <path id="Path_1211" data-name="Path 1211" d="M494.211,316.024c1.56.422,1.568,1.107.017,1.53a12.665,12.665,0,0,1-5.634,0c-1.56-.423-1.565-1.108-.014-1.53A12.669,12.669,0,0,1,494.211,316.024Z" transform="translate(-420.848 -297.684)" fill="none" stroke="#000" stroke-linecap="round" stroke-linejoin="round" stroke-width="1"/>
          <path id="Path_1212" data-name="Path 1212" d="M514.639,321.555c1.563.423,1.574,1.11.024,1.533a12.662,12.662,0,0,1-5.638,0c-1.562-.424-1.571-1.11-.02-1.534A12.664,12.664,0,0,1,514.639,321.555Z" transform="translate(-431.694 -300.62)" fill="none" stroke="#000" stroke-linecap="round" stroke-linejoin="round" stroke-width="1"/>
          <path id="Path_1213" data-name="Path 1213" d="M535.105,327.1c1.566.424,1.58,1.112.03,1.537a12.653,12.653,0,0,1-5.642,0c-1.565-.424-1.577-1.113-.027-1.537A12.65,12.65,0,0,1,535.105,327.1Z" transform="translate(-442.56 -303.562)" fill="none" stroke="#000" stroke-linecap="round" stroke-linejoin="round" stroke-width="1"/>
          <path id="Path_1214" data-name="Path 1214" d="M555.609,332.648c1.568.424,1.586,1.114.037,1.54a12.648,12.648,0,0,1-5.646,0c-1.568-.425-1.583-1.115-.033-1.54A12.653,12.653,0,0,1,555.609,332.648Z" transform="translate(-453.447 -306.51)" fill="none" stroke="#000" stroke-linecap="round" stroke-linejoin="round" stroke-width="1"/>
          <path id="Path_1215" data-name="Path 1215" d="M576.152,338.209c1.571.425,1.591,1.116.044,1.543a12.636,12.636,0,0,1-5.651,0c-1.571-.426-1.589-1.117-.039-1.543A12.637,12.637,0,0,1,576.152,338.209Z" transform="translate(-464.353 -309.462)" fill="none" stroke="#000" stroke-linecap="round" stroke-linejoin="round" stroke-width="1"/>
        </g>
      </g>
    </g>
    <path id="Path_1332" data-name="Path 1332" d="M0,0V289.388" transform="translate(248.613 66.497)" fill="none" stroke="#000" stroke-linecap="round" stroke-width="1"/>
    <g id="Group_549" data-name="Group 549" transform="translate(128.078 105.995)">
      <path id="Path_1216" data-name="Path 1216" d="M479.392,405.11l-.006.005h0a6.307,6.307,0,0,0-.587,8.313.027.027,0,0,0,.033.01.026.026,0,0,0,.008-.032c-.481-1.487,1.978-5.093,3.249-6.6a.028.028,0,0,0,.008-.018.027.027,0,0,0-.011-.022c-2.138-2.127-2.708-1.64-2.7-1.647" transform="translate(-477.509 -403.296)"/>
      <path id="Path_1217" data-name="Path 1217" d="M497.344,405.109l.005.005h0a6.308,6.308,0,0,1,.587,8.313.027.027,0,0,1-.033.01.025.025,0,0,1-.008-.032c.481-1.487-1.976-5.1-3.246-6.609a.03.03,0,0,1-.008-.017.027.027,0,0,1,.011-.021c2.138-2.127,2.7-1.637,2.7-1.644" transform="translate(-486.606 -403.295)"/>
      <path id="Path_1218" data-name="Path 1218" d="M487.217,401.284a6.229,6.229,0,0,1,3.287.923.024.024,0,0,1,.01.031.025.025,0,0,1-.03.011c-1.222-.264-3.078.791-3.254.9a.026.026,0,0,1-.014.005.023.023,0,0,1-.014-.005c-.465-.267-2.183-1.167-3.263-.89a.025.025,0,0,1-.03-.011.024.024,0,0,1,.01-.031,6.214,6.214,0,0,1,3.3-.93" transform="translate(-480.907 -401.284)"/>
      <path id="Path_1219" data-name="Path 1219" d="M486.054,412.075a.036.036,0,0,1,.021.01c1.888,1.435,5.119,4.987,4.133,5.989h0a6.309,6.309,0,0,1-8.307,0h0c-.985-1,2.246-4.554,4.134-5.989a.036.036,0,0,1,.021-.01" transform="translate(-479.743 -407.014)"/>
    </g>
    <g id="Group_551" data-name="Group 551" transform="translate(0 0)">
      <path id="Path_1333" data-name="Path 1333" d="M0,31.372,117.5,0" transform="translate(0 19.191)" fill="none" stroke="#000" stroke-linecap="round" stroke-width="1"/>
      <g id="Group_550" data-name="Group 550" transform="translate(0.334)">
        <path id="Path_1220" data-name="Path 1220" d="M225.854,191.409v-13.62a6.706,6.706,0,0,1-1.6,1.055,9.648,9.648,0,0,1-2.05.814v-1.825a12.712,12.712,0,0,0,2.561-1.066,11.745,11.745,0,0,0,2.209-1.473h.682v16.115Z" transform="translate(-222.205 -175.294)"/>
        <path id="Path_1221" data-name="Path 1221" d="M251.655,186.993a4.773,4.773,0,0,1-1.522,3.694,5.776,5.776,0,0,1-4.062,1.4,6.345,6.345,0,0,1-3.265-.659V189.51a6,6,0,0,0,3.287,1.033,3.837,3.837,0,0,0,2.693-.934,3.23,3.23,0,0,0,1.022-2.506,2.991,2.991,0,0,0-1.033-2.413,4.531,4.531,0,0,0-3-.874,22.841,22.841,0,0,0-2.671.132l.538-7.9h7.288v1.627H245.2l-.319,4.628,1.451-.055a5.73,5.73,0,0,1,3.891,1.242A4.4,4.4,0,0,1,251.655,186.993Z" transform="translate(-233.144 -175.692)"/>
        <path id="Path_1222" data-name="Path 1222" d="M270.432,191.409v-13.62a6.7,6.7,0,0,1-1.6,1.055,9.648,9.648,0,0,1-2.05.814v-1.825a12.7,12.7,0,0,0,2.561-1.066,11.767,11.767,0,0,0,2.21-1.473h.681v16.115Z" transform="translate(-245.875 -175.294)"/>
        <path id="Path_1223" data-name="Path 1223" d="M303.414,196.6h-1.8v-6.464a4.84,4.84,0,0,0-.577-2.71,2.207,2.207,0,0,0-1.94-.819,2.4,2.4,0,0,0-1.962,1.055,4.019,4.019,0,0,0-.808,2.517v6.42h-1.8v-6.684q0-3.309-2.561-3.309A2.372,2.372,0,0,0,290,187.6a4.093,4.093,0,0,0-.77,2.578v6.42h-1.8V185.342h1.8v1.781h.044a3.812,3.812,0,0,1,3.484-2.056,3.369,3.369,0,0,1,1.979.616,3.169,3.169,0,0,1,1.22,1.726,4.014,4.014,0,0,1,3.737-2.342q3.716,0,3.716,4.6Z" transform="translate(-256.838 -180.483)"/>
        <path id="Path_1224" data-name="Path 1224" d="M344.735,196.6h-1.8v-6.464a4.836,4.836,0,0,0-.577-2.71,2.207,2.207,0,0,0-1.94-.819,2.4,2.4,0,0,0-1.962,1.055,4.021,4.021,0,0,0-.808,2.517v6.42h-1.8v-6.684q0-3.309-2.561-3.309a2.373,2.373,0,0,0-1.957.995,4.093,4.093,0,0,0-.77,2.578v6.42h-1.8V185.342h1.8v1.781h.044a3.813,3.813,0,0,1,3.485-2.056,3.369,3.369,0,0,1,1.978.616,3.167,3.167,0,0,1,1.22,1.726,4.014,4.014,0,0,1,3.738-2.342q3.715,0,3.716,4.6Z" transform="translate(-278.778 -180.483)"/>
      </g>
    </g>
    <g id="Group_553" data-name="Group 553" transform="translate(0 374.011)">
      <line id="Line_22" data-name="Line 22" x2="117.256" y2="36.815" fill="none" stroke="#000" stroke-linecap="round" stroke-linejoin="round" stroke-width="1"/>
      <g id="Group_552" data-name="Group 552" transform="translate(8.209 32.236)">
        <path id="Path_1225" data-name="Path 1225" d="M225.59,1057.564v-13.62a6.738,6.738,0,0,1-1.6,1.055,9.638,9.638,0,0,1-2.051.813v-1.825a12.628,12.628,0,0,0,2.561-1.066,11.749,11.749,0,0,0,2.21-1.473h.681v16.116Z" transform="translate(-221.94 -1041.448)"/>
        <path id="Path_1226" data-name="Path 1226" d="M251.391,1053.147a4.772,4.772,0,0,1-1.522,3.694,5.777,5.777,0,0,1-4.062,1.4,6.346,6.346,0,0,1-3.265-.66v-1.913a6,6,0,0,0,3.287,1.033,3.836,3.836,0,0,0,2.693-.934,3.23,3.23,0,0,0,1.022-2.506,2.991,2.991,0,0,0-1.033-2.413,4.534,4.534,0,0,0-3-.874,22.9,22.9,0,0,0-2.671.132l.538-7.9h7.288v1.627h-5.727l-.318,4.628,1.451-.055a5.731,5.731,0,0,1,3.891,1.242A4.4,4.4,0,0,1,251.391,1053.147Z" transform="translate(-232.879 -1041.846)"/>
        <path id="Path_1227" data-name="Path 1227" d="M270.168,1057.564v-13.62a6.737,6.737,0,0,1-1.6,1.055,9.645,9.645,0,0,1-2.05.813v-1.825a12.634,12.634,0,0,0,2.561-1.066,11.735,11.735,0,0,0,2.21-1.473h.682v16.116Z" transform="translate(-245.61 -1041.448)"/>
        <path id="Path_1228" data-name="Path 1228" d="M303.15,1062.753h-1.8v-6.464a4.841,4.841,0,0,0-.577-2.71,2.207,2.207,0,0,0-1.94-.819,2.4,2.4,0,0,0-1.962,1.055,4.018,4.018,0,0,0-.808,2.517v6.42h-1.8v-6.684q0-3.309-2.561-3.309a2.373,2.373,0,0,0-1.957.995,4.1,4.1,0,0,0-.769,2.578v6.42h-1.8V1051.5h1.8v1.78h.044a3.813,3.813,0,0,1,3.485-2.055,3.369,3.369,0,0,1,1.979.615,3.168,3.168,0,0,1,1.22,1.726,4.016,4.016,0,0,1,3.738-2.341q3.715,0,3.716,4.595Z" transform="translate(-256.574 -1046.638)"/>
        <path id="Path_1229" data-name="Path 1229" d="M344.47,1062.753h-1.8v-6.464a4.836,4.836,0,0,0-.577-2.71,2.207,2.207,0,0,0-1.94-.819,2.4,2.4,0,0,0-1.962,1.055,4.018,4.018,0,0,0-.808,2.517v6.42h-1.8v-6.684q0-3.309-2.561-3.309a2.372,2.372,0,0,0-1.957.995,4.093,4.093,0,0,0-.77,2.578v6.42h-1.8V1051.5h1.8v1.78h.044a3.812,3.812,0,0,1,3.484-2.055,3.369,3.369,0,0,1,1.979.615,3.171,3.171,0,0,1,1.22,1.726,4.015,4.015,0,0,1,3.738-2.341q3.715,0,3.715,4.595Z" transform="translate(-278.514 -1046.638)"/>
      </g>
    </g>
    <g id="Group_554" data-name="Group 554" transform="translate(264.052 207.143)">
      <path id="Path_1230" data-name="Path 1230" d="M776.542,628.692a4.292,4.292,0,0,1-1.528,3.435,5.97,5.97,0,0,1-4.012,1.3,6.551,6.551,0,0,1-3.584-.857v-1.935a5.743,5.743,0,0,0,3.649,1.253,4,4,0,0,0,2.644-.819,2.732,2.732,0,0,0,.984-2.215q0-3.089-4.4-3.089H768.99V624.24h1.242q3.891,0,3.891-2.9,0-2.682-2.968-2.682a5.055,5.055,0,0,0-3.133,1.121v-1.748a6.851,6.851,0,0,1,3.584-.9,4.666,4.666,0,0,1,3.16,1.039,3.42,3.42,0,0,1,1.2,2.721,3.848,3.848,0,0,1-3.144,4v.044a4.359,4.359,0,0,1,2.693,1.209A3.459,3.459,0,0,1,776.542,628.692Z" transform="translate(-767.418 -617.04)"/>
      <path id="Path_1231" data-name="Path 1231" d="M802.505,625.207a11.279,11.279,0,0,1-1.374,6.063,4.377,4.377,0,0,1-3.913,2.16,4.128,4.128,0,0,1-3.677-2.034,10.774,10.774,0,0,1-1.3-5.8,12,12,0,0,1,1.352-6.288,4.375,4.375,0,0,1,3.958-2.177Q802.5,617.128,802.505,625.207Zm-1.847.176q0-6.727-3.2-6.727-3.375,0-3.375,6.848,0,6.387,3.308,6.387Q800.659,631.891,800.658,625.383Z" transform="translate(-780.597 -617.04)"/>
      <path id="Path_1232" data-name="Path 1232" d="M821.692,633.056v-13.62a6.693,6.693,0,0,1-1.6,1.055,9.641,9.641,0,0,1-2.05.813v-1.825a12.64,12.64,0,0,0,2.561-1.066,11.761,11.761,0,0,0,2.21-1.473h.682v16.116Z" transform="translate(-794.299 -616.94)"/>
      <path id="Path_1233" data-name="Path 1233" d="M854.675,638.245h-1.8v-6.464a4.836,4.836,0,0,0-.577-2.71,2.207,2.207,0,0,0-1.94-.819,2.4,2.4,0,0,0-1.962,1.055,4.021,4.021,0,0,0-.808,2.517v6.42h-1.8v-6.684q0-3.309-2.561-3.309a2.372,2.372,0,0,0-1.957.995,4.093,4.093,0,0,0-.77,2.578v6.42h-1.8V626.989h1.8v1.781h.044a3.813,3.813,0,0,1,3.485-2.056,3.368,3.368,0,0,1,1.978.615,3.169,3.169,0,0,1,1.22,1.726,4.015,4.015,0,0,1,3.738-2.341q3.715,0,3.716,4.6Z" transform="translate(-805.262 -622.13)"/>
      <path id="Path_1234" data-name="Path 1234" d="M896,638.245h-1.8v-6.464a4.841,4.841,0,0,0-.577-2.71,2.208,2.208,0,0,0-1.94-.819,2.4,2.4,0,0,0-1.962,1.055,4.021,4.021,0,0,0-.808,2.517v6.42h-1.8v-6.684q0-3.309-2.561-3.309a2.373,2.373,0,0,0-1.957.995,4.093,4.093,0,0,0-.77,2.578v6.42h-1.8V626.989h1.8v1.781h.044a3.813,3.813,0,0,1,3.485-2.056,3.369,3.369,0,0,1,1.979.615,3.167,3.167,0,0,1,1.22,1.726,4.015,4.015,0,0,1,3.738-2.341q3.715,0,3.716,4.6Z" transform="translate(-827.203 -622.13)"/>
    </g>
  </g>
</svg>
