<?xml version="1.0" encoding="utf-8"?>
<svg version="1.1" id="图层_1" x="0px" y="0px" viewBox="0 0 1133.86 1133.86" style="enable-background:new 0 0 1133.86 1133.86;" xmlns="http://www.w3.org/2000/svg">
  <style type="text/css">
	.st0{fill:#282830;}
	.st1{fill:#5BCEFA;}
	.st2{clip-path:url(#SVGID_00000013163948973952212880000004290479274362499733_);fill:#FFFFFF;}
	.st3{clip-path:url(#SVGID_00000040572466027312289740000000209112524370939327_);}
	.st4{clip-path:url(#SVGID_00000016771439575386674360000002385833058888576955_);fill:#F5A9B8;}
	.st5{clip-path:url(#SVGID_00000156576552879522039590000012504457497212664464_);fill:#5BCEFA;}
	.st6{clip-path:url(#SVGID_00000022553136624354536270000016728219453075014272_);fill:#F5A9B8;}
</style>
  <g style="" transform="matrix(1.014498, 0, 0, 1.014498, -3.1551, -16.378767)">
    <path class="st1" d="M 249.873 32.022 C 249.015 25.638 247.728 12.952 260.067 21.028 C 317.298 58.483 383.542 64.367 448.026 76.417 C 526.596 91.095 605.665 103.769 678.015 140.633 C 729.593 166.909 758.857 206.402 761.256 266.6 C 762.553 299.177 761.649 331.267 759.853 370.31 C 706.909 280.548 617.529 266.113 535.043 241.32 C 477.789 224.104 418.831 212.519 360.534 198.849 C 303.847 185.549 271.085 149.634 259.835 93.353 C 255.781 73.045 252.641 52.539 249.873 32.022 Z" style=""/>
    <g style="" transform="matrix(1.158522, 0, 0, 1.158522, -93.467461, -99.748657)">
      <defs>
        <rect id="SVGID_1_" x="582.91" y="364.55" width="313.75" height="644.59"/>
      </defs>
      <clipPath id="SVGID_00000015312812903908278760000009079441715463807141_">
        <rect x="582.91" y="364.55" width="313.75" height="644.59" transform="matrix(1, 0, 0, 1, 0, 0)" style="overflow: visible;"/>
      </clipPath>
      <path style="clip-path:url(#SVGID_00000015312812903908278760000009079441715463807141_);fill:#FFFFFF;" d="M867.28,631.96 c-1.78-111.44-90.65-180.31-189.04-212.31c-77.98-28.19-160.34-36.41-240.91-52.81c-61.25-12.46-123.6-21.74-176.44-59.48 c-11.17-7.98-11.42,1.82-11.4,8.86c0.05,23.17,5.26,45.69,10.52,68.02c26.33,112.32,117.27,112.72,212.11,132.05 c34.58,7.04,69.81,13.02,103.93,22.46c0.5-1.26,1.56-2.32,2.86-2.67c1.57-0.42,3-0.41,4.4-0.16c1.04-0.36,2.09-0.59,3.18-0.75 c0.86-0.13,1.65-0.08,2.37,0.13c1.91-2.36,6.52-2.48,7.59,1.34c0.24,0.85,0.34,1.7,0.34,2.52c5.42,0.61,10.91,1.13,16.16,2.62 c5.94,1.68,10.66,5.12,16.11,7.78c1.19,0.58,1.82,1.5,2.04,2.51c1.08,0.13,2.16,0.27,3.24,0.39c2.3,0.27,4.26,1.74,4.27,4.25 c2.99,1.41,5.77,3.2,8.61,4.87c0.15-0.01,0.3-0.02,0.46-0.02c2.15,0,3.45,1.3,3.92,2.88c1.56,0.38,2.51,1.56,2.86,2.91 c0.37,0.64,0.52,1.37,0.54,2.11c0.16,0.49,0.25,1,0.25,1.52c23.08,14.53,41.19,34.33,47.73,63.89 c12.36,55.73,1.49,108.22-31.67,154.68c-34.39,48.2-85.21,73.96-138.52,95.28c-20.42,8.17-21.68-14.47-21.68-14.47 s0-129.06,0.58-193.59c0.12-12.31-3.62-17.95-16.42-17.01c-15.28,1.13-30.66,1.02-45.91,2.33c-56.95,4.89-81.17,31.2-81.25,87.85 c-0.07,45.37-0.02,90.73-0.02,136.1h-0.07c0,50.48,0.63,100.97-0.33,151.43c-0.36,18.83,6.78,24.44,24.77,23.66 C633.94,1048.61,885.26,902.88,867.28,631.96z M462.3,937.93c-15.89,0-28.77-12.87-28.77-28.77c1.51-38.15,56.02-38.14,57.53,0 C491.06,925.05,478.18,937.93,462.3,937.93z"/>
    </g>
    <g style="" transform="matrix(1.158522, 0, 0, 1.158522, -93.467461, -99.748657)">
      <defs>
        <rect id="SVGID_00000013182868559319855600000001868833459986730112_" x="379.44" y="678.3" width="422.32" height="398.38"/>
      </defs>
      <clipPath id="SVGID_00000019662216407028562290000018044873561422338214_">
        <rect x="379.44" y="678.3" width="422.32" height="398.38" transform="matrix(1, 0, 0, 1, 0, 0)" style="overflow: visible;"/>
      </clipPath>
      <g style="clip-path:url(#SVGID_00000019662216407028562290000018044873561422338214_);">
        <defs>
          <path id="SVGID_00000034053538085508474080000006260256892627175078_" d="M765,909.12c3.74,4.11,3.34,84.09-8.55,78.65 c-53.69-24.56-103.89,55.55-155.59,78.65c-62.99,28.15-145.11-9.35-214.58,0c-85.16,13.77-128.78-64.01-169.73-129.49 c117.25,49.77,142.96-321.62,245.81-363.79c22.58-9.26,118.73,282.66,141.91,277.84C681.18,846.46,718.94,860.51,765,909.12z"/>
        </defs>
        <clipPath id="SVGID_00000168821203510434305130000000592620700790941884_">
          <path d="M765,909.12c3.74,4.11,3.34,84.09-8.55,78.65 c-53.69-24.56-103.89,55.55-155.59,78.65c-62.99,28.15-145.11-9.35-214.58,0c-85.16,13.77-128.78-64.01-169.73-129.49 c117.25,49.77,142.96-321.62,245.81-363.79c22.58-9.26,118.73,282.66,141.91,277.84C681.18,846.46,718.94,860.51,765,909.12z" transform="matrix(1, 0, 0, 1, 0, 0)" style="overflow: visible;"/>
        </clipPath>
        <path style="clip-path:url(#SVGID_00000168821203510434305130000000592620700790941884_);fill:#F5A9B8;" d="M866.95,631.96 c-1.78-111.44-90.64-180.31-189.04-212.31c-77.98-28.19-160.34-36.41-240.91-52.81c-61.25-12.46-123.6-21.74-176.44-59.48 c-11.17-7.98-11.42,1.82-11.4,8.86c0.05,23.17,5.26,45.69,10.52,68.02c26.33,112.32,117.27,112.72,212.11,132.05 c58.42,11.89,118.74,20.77,172.34,48.42c28.15,15,51,36.12,58.54,70.16c12.36,55.73,1.49,108.22-31.67,154.68 c-34.39,48.2-85.21,73.96-138.52,95.28c-20.42,8.17-21.68-14.47-21.68-14.47s0-129.06,0.58-193.59 c0.12-12.31-3.62-17.95-16.42-17.01c-15.28,1.13-30.66,1.02-45.91,2.33c-56.95,4.89-81.17,31.2-81.25,87.85 c-0.07,45.37-0.02,90.73-0.02,136.1h-0.07c0,50.48,0.63,100.97-0.33,151.43c-0.21,11.26,2.25,17.79,8.11,21.05 c0.19-1.97,1.56-3.79,4.1-3.79c1.97,0,3.23,1.1,3.79,2.5c0.41-0.13,0.85-0.2,1.35-0.2c0.6,0,1.12,0.11,1.59,0.29 c0.66-0.56,1.55-0.92,2.66-0.92c1.16,0,2.07,0.38,2.74,0.98c0.58-0.34,1.29-0.54,2.13-0.54c2.61,0,3.98,1.92,4.12,3.94 C637.64,1046.25,884.79,900.7,866.95,631.96z M491.53,929.09c-2.82,6.87-9.28,10.56-16.37,11.72 c-7.41,1.22-16.71,2.87-23.83-0.09c-6.26-2.6-10.03-8.33-13.09-14.1c-3.43-6.48-8.06-12.46-10.83-19.26 c-2.99-7.34-1.57-14.72,2.62-21.33c6.04-9.51,18.99-13.05,30.11-11.48c1.18-1.48,3.18-2.22,5.27-0.93 c6.48,4.01,14.32,5.61,19.98,10.95c6.19,5.84,6.13,14.09,7.02,21.95C493.25,913.96,494.47,921.94,491.53,929.09z"/>
      </g>
    </g>
    <g style="" transform="matrix(1.158522, 0, 0, 1.158522, -93.467461, -99.748657)">
      <defs>
        <path id="SVGID_00000102502676766341068490000016878966865999305910_" d="M511.13,870.37c-0.01,51.7,5.15,93.35-7.73,120.82 c-34.25,73.07-110.92,69.94-110.92,69.94c-128.03,39.93-205.9,41.7-233.6,5.29c-80.03-105.18,88.4-496.08,279.55-500.12 c34.11-0.72,63.42,11.21,85.49,23.94"/>
      </defs>
      <clipPath id="SVGID_00000179645651647828097400000015685107387042271650_">
        <path d="M511.13,870.37c-0.01,51.7,5.15,93.35-7.73,120.82 c-34.25,73.07-110.92,69.94-110.92,69.94c-128.03,39.93-205.9,41.7-233.6,5.29c-80.03-105.18,88.4-496.08,279.55-500.12 c34.11-0.72,63.42,11.21,85.49,23.94" transform="matrix(1, 0, 0, 1, 0, 0)" style="overflow: visible;"/>
      </clipPath>
      <path style="clip-path:url(#SVGID_00000179645651647828097400000015685107387042271650_);fill:#5BCEFA;" d="M867.64,631.96 c-1.78-111.44-90.65-180.31-189.04-212.31c-77.98-28.19-160.34-36.41-240.91-52.81c-61.25-12.46-123.6-21.74-176.44-59.48 c-11.17-7.98-11.42,1.82-11.4,8.86c0.05,23.17,5.26,45.69,10.52,68.02c26.33,112.32,117.27,112.72,212.11,132.05 c58.42,11.89,118.74,20.77,172.34,48.42c28.15,15,51,36.12,58.54,70.16c12.36,55.73,1.49,108.22-31.67,154.68 c-34.39,48.2-85.21,73.96-138.52,95.28c-20.42,8.17-21.68-14.47-21.68-14.47s0-129.06,0.58-193.59 c0.12-12.31-3.62-17.95-16.42-17.01c-15.28,1.13-30.66,1.02-45.91,2.33c-56.95,4.89-81.17,31.2-81.25,87.85 c-0.07,45.37-0.02,90.73-0.02,136.1h-0.07c0,50.48,0.63,100.97-0.33,151.43c-0.36,18.83,6.78,24.44,24.77,23.66 C634.29,1048.61,885.61,902.88,867.64,631.96z M462.65,937.93c-15.89,0-28.77-12.87-28.77-28.77c1.51-38.15,56.02-38.14,57.53,0 C491.41,925.05,478.54,937.93,462.65,937.93z"/>
      <path style="clip-path:url(#SVGID_00000179645651647828097400000015685107387042271650_);fill:#5BCEFA;" d="M867.39,631.96 c-1.78-111.44-90.65-180.31-189.04-212.31c-77.98-28.19-160.34-36.41-240.91-52.81c-61.25-12.46-123.6-21.74-176.44-59.48 c-11.17-7.98-11.42,1.82-11.4,8.86c0.05,23.17,5.26,45.69,10.52,68.02c26.33,112.32,117.27,112.72,212.11,132.05 c58.42,11.89,118.74,20.77,172.34,48.42c28.15,15,51,36.12,58.54,70.16c12.36,55.73,1.49,108.22-31.67,154.68 c-34.39,48.2-85.21,73.96-138.52,95.28c-20.42,8.17-21.68-14.47-21.68-14.47s0-129.06,0.58-193.59 c0.12-12.31-3.62-17.95-16.42-17.01c-15.28,1.13-30.66,1.02-45.91,2.33c-56.95,4.89-81.17,31.2-81.25,87.85 c-0.07,45.37-0.02,90.73-0.02,136.1h-0.07c0,50.48,0.63,100.97-0.33,151.43c-0.36,18.83,6.78,24.44,24.77,23.66 C634.04,1048.61,885.37,902.88,867.39,631.96z M462.41,937.93c-15.89,0-28.77-12.87-28.77-28.77c1.51-38.15,56.02-38.14,57.53,0 C491.17,925.05,478.29,937.93,462.41,937.93z"/>
    </g>
    <g style="" transform="matrix(1.158522, 0, 0, 1.158522, -93.467461, -99.748657)">
      <defs>
        <path id="SVGID_00000029743027975425012370000006815600252155847054_" d="M656.02,567.89c-1.78,5.66-2.06,17.58-10.81,7.98 c-40.61-44.59-163.46-9.58-215.33-32.65c-74.77-31.17-183.92-45.8-209.45-102.59c-28.36-63.08,33.07-171.66,74.69-274.15 c50.61,139.29,191.02,163.75,301.52,230.15C668.09,427.07,667.14,500.93,656.02,567.89z"/>
      </defs>
      <clipPath id="SVGID_00000101816587942996612510000008439689530940119433_">
        <path d="M656.02,567.89c-1.78,5.66-2.06,17.58-10.81,7.98 c-40.61-44.59-163.46-9.58-215.33-32.65c-74.77-31.17-183.92-45.8-209.45-102.59c-28.36-63.08,33.07-171.66,74.69-274.15 c50.61,139.29,191.02,163.75,301.52,230.15C668.09,427.07,667.14,500.93,656.02,567.89z" transform="matrix(1, 0, 0, 1, 0, 0)" style="overflow: visible;"/>
      </clipPath>
      <path style="clip-path:url(#SVGID_00000101816587942996612510000008439689530940119433_);fill:#F5A9B8;" d="M867.63,631.96 c-1.78-111.44-90.65-180.31-189.04-212.31c-77.98-28.19-160.34-36.41-240.91-52.81c-61.25-12.46-123.6-21.74-176.44-59.48 c-11.17-7.98-11.42,1.82-11.4,8.86c0.05,23.17,5.26,45.69,10.52,68.02c26.33,112.32,117.27,112.72,212.11,132.05 c58.42,11.89,118.74,20.77,172.34,48.42c28.15,15,51,36.12,58.54,70.16c12.36,55.73,1.49,108.22-31.67,154.68 c-34.39,48.2-85.21,73.96-138.52,95.28c-20.42,8.17-21.68-14.47-21.68-14.47s0-129.06,0.58-193.59 c0.12-12.31-3.62-17.95-16.42-17.01c-15.28,1.13-30.66,1.02-45.91,2.33c-56.95,4.89-81.17,31.2-81.25,87.85 c-0.07,45.37-0.02,90.73-0.02,136.1h-0.07c0,50.48,0.63,100.97-0.33,151.43c-0.36,18.83,6.78,24.44,24.77,23.66 C634.28,1048.61,885.61,902.88,867.63,631.96z M462.65,937.93c-15.89,0-28.77-12.87-28.77-28.77c1.51-38.15,56.02-38.14,57.53,0 C491.41,925.05,478.53,937.93,462.65,937.93z"/>
    </g>
  </g>
</svg>